<svg width="44" height="21" viewBox="0 0 44 21" fill="none" xmlns="http://www.w3.org/2000/svg">
<path fill-rule="evenodd" clip-rule="evenodd" d="M0 10.5C0 9.67157 0.671573 9 1.5 9H42.5C43.3284 9 44 9.67157 44 10.5C44 11.3284 43.3284 12 42.5 12H1.5C0.671573 12 0 11.3284 0 10.5Z" fill="white"/>
<path fill-rule="evenodd" clip-rule="evenodd" d="M0 1.5C0 0.671573 0.671573 0 1.5 0H42.5C43.3284 0 44 0.671573 44 1.5C44 2.32843 43.3284 3 42.5 3H1.5C0.671573 3 0 2.32843 0 1.5Z" fill="white"/>
<path fill-rule="evenodd" clip-rule="evenodd" d="M0 19.5C0 18.6716 0.671573 18 1.5 18H42.5C43.3284 18 44 18.6716 44 19.5C44 20.3284 43.3284 21 42.5 21H1.5C0.671573 21 0 20.3284 0 19.5Z" fill="white"/>
</svg>
