<svg fill="none" height="36" viewBox="0 0 51 36" width="51" xmlns="http://www.w3.org/2000/svg"><path d="m13 26h20s3 0 3-4c0-2 0-6-1-7s-8-7-11-7h-6c-3 0-10 7-10 7l-4 1s-3 1-3 3v3s-1 .338-1 1.957c0 2.043 2 2.043 2 2.043z" fill="#ba0621"/><path d="m20 10h-2c-2 0-8 6-8 6s4.997-.263 10-.519zm10 3c-1-1-5-3-7-3h-1v5.379c4.011-.204 7.582-.379 8-.379 1 0 1-1 0-2z" fill="#324f64"/><path d="m10 29c2.2091 0 4-1.7909 4-4s-1.7909-4-4-4c-2.20914 0-4 1.7909-4 4s1.79086 4 4 4z" fill="#292f33"/><path d="m10 27c1.1046 0 2-.8954 2-2s-.8954-2-2-2c-1.10457 0-2 .8954-2 2s.89543 2 2 2z" fill="#656a6d"/><path d="m27 29c2.2091 0 4-1.7909 4-4s-1.7909-4-4-4-4 1.7909-4 4 1.7909 4 4 4z" fill="#292f33"/><path d="m27 27c1.1046 0 2-.8954 2-2s-.8954-2-2-2-2 .8954-2 2 .8954 2 2 2z" fill="#656a6d"/><g fill="#292f33"><path d="m39 16.25c-.4142 0-.75.3358-.75.75s.3358.75.75.75zm11 1.5c.4142 0 .75-.3358.75-.75s-.3358-.75-.75-.75zm-11 0h11v-1.5h-11z"/><path d="m39 22.25c-.4142 0-.75.3358-.75.75s.3358.75.75.75zm8 1.5c.4142 0 .75-.3358.75-.75s-.3358-.75-.75-.75zm-8 0h8v-1.5h-8z"/><path d="m35 10.25c-.4142 0-.75.3358-.75.75s.3358.75.75.75zm10 1.5c.4142 0 .75-.3358.75-.75s-.3358-.75-.75-.75zm-10 0h10v-1.5h-10z"/></g></svg>